<svg fill="none" height="24" viewBox="0 0 24 24" width="24" xmlns="http://www.w3.org/2000/svg"><g clip-rule="evenodd" fill="#47495f" fill-rule="evenodd"><path d="m6.5 11h-2c-.27614 0-.5.2239-.5.5s.22386.5.5.5h15c.2761 0 .5-.2239.5-.5s-.2239-.5-.5-.5h-2c0-3.03757-2.4624-5.5-5.5-5.5-3.03757 0-5.5 2.46243-5.5 5.5zm1 0c0-2.48528 2.01472-4.5 4.5-4.5 2.4853 0 4.5 2.01472 4.5 4.5z"/><path d="m10.437 15c-.222-.8626-1.00508-1.5-1.937-1.5-1.10457 0-2 .8954-2 2s.89543 2 2 2c.93192 0 1.715-.6374 1.937-1.5h3.126c.222.8626 1.0051 1.5 1.937 1.5 1.1046 0 2-.8954 2-2s-.8954-2-2-2c-.9319 0-1.715.6374-1.937 1.5zm-1.937-.5c-.55228 0-1 .4477-1 1s.44772 1 1 1 1-.4477 1-1-.44772-1-1-1zm6 1c0 .5523.4477 1 1 1s1-.4477 1-1-.4477-1-1-1-1 .4477-1 1z"/></g></svg>