<svg fill="none" height="24" viewBox="0 0 24 24" width="24" xmlns="http://www.w3.org/2000/svg"><g clip-rule="evenodd" fill="#47495f" fill-rule="evenodd"><path d="m12.5 6.00004c0-.68682-.2837-1.32638-.7569-1.74426-.4829-.42652-1.1584-.61282-1.86429-.37191-.75238.25678-1.59904.69519-2.25996 1.44846-.49457.56366-.86901 1.28565-1.03092 2.19812-.84695.12619-1.5795.63479-2.10925 1.34112-.61381.81842-.97868 1.92613-.97868 3.12843s.36487 2.31.97868 3.1284c.51408.6855 1.21914 1.1847 2.0344 1.329-.00856.0366-.01308.0748-.01308.1141 0 1.1384.4821 1.9709 1.16175 2.5552.66291.5698 1.50155.8954 2.23666 1.0853 1.46759.3792 2.60159-.8702 2.60159-2.212zm-5.01309 10.45726c.00856.0367.01309.0749.01309.1142 0 .8167.33089 1.3819.81361 1.7968.49947.4294 1.17257.7044 1.83499.8755.6713.1735 1.3514-.3764 1.3514-1.2438v-11.99996c0-.41775-.1735-.77806-.4188-.99471-.2356-.20802-.5399-.29091-.8794-.17506-.64885.22145-1.32234.58155-1.83127 1.16159-.50037.57028-.87053 1.38523-.87053 2.57961 0 .27614-.22386.5-.5.5-.27612 0-.49997-.22383-.5-.49995-.45196.13076-.87487.43812-1.22132.90005-.47197.62933-.77868 1.52163-.77868 2.52843s.30671 1.8991.77868 2.5284c.47186.6292 1.08556.9716 1.72132.9716.59053 0 1.15996-.2945 1.61676-.8397.17736-.2116.49272-.2394.70438-.0621.21165.1774.23946.4928.0621.7044-.49861.595-1.15199 1.0229-1.89633 1.1547z"/><path d="m16.55 11.5h-2.05c-.2761 0-.5.2239-.5.5s.2239.5.5.5h2.05c.2316 1.1411 1.2405 2 2.45 2 1.3807 0 2.5-1.1193 2.5-2.5s-1.1193-2.5-2.5-2.5c-1.2095 0-2.2184.8589-2.45 2zm.95.4963c.002-.8268.6728-1.4963 1.5-1.4963.8284 0 1.5.6716 1.5 1.5s-.6716 1.5-1.5 1.5c-.8272 0-1.498-.6695-1.5-1.4963v-.0037z"/><path d="m17.3385 16.132c.4417-.3932 1.0237-.632 1.6615-.632 1.3807 0 2.5 1.1193 2.5 2.5s-1.1193 2.5-2.5 2.5-2.5-1.1193-2.5-2.5c0-.3838.0865-.7473.241-1.0723-.0183-.0111-.0361-.0235-.0533-.0373l-2.5-2c-.2157-.1725-.2506-.4871-.0781-.7027.1725-.2157.4871-.2506.7028-.0781l2.5 2c.009.0072.0177.0147.0261.0224zm1.6615.368c-.8284 0-1.5.6716-1.5 1.5s.6716 1.5 1.5 1.5 1.5-.6716 1.5-1.5-.6716-1.5-1.5-1.5z"/><path d="m19 3.5c-1.3807 0-2.5 1.11929-2.5 2.5 0 .38376.0865.74733.241 1.07228-.0183.01113-.0361.02356-.0533.0373l-2.5 2c-.2157.17251-.2506.48716-.0781.70279s.4871.25063.7028.07808l2.5-2c.009-.00722.0177-.0147.0261-.02241.4417.39312 1.0237.63196 1.6615.63196 1.3807 0 2.5-1.11929 2.5-2.5s-1.1193-2.5-2.5-2.5zm-1.5 2.5c0-.82843.6716-1.5 1.5-1.5s1.5.67157 1.5 1.5-.6716 1.5-1.5 1.5-1.5-.67157-1.5-1.5z"/></g></svg>