<svg fill="none" height="32" viewBox="0 0 24 24" width="32" xmlns="http://www.w3.org/2000/svg"><g clip-rule="evenodd" fill="#47495f" fill-rule="evenodd"><path d="m5.50235 7.98295c.11784 6.03405 4.63595 8.82425 6.53525 9.95735 1.142-.5183 2.701-1.6684 4.0055-3.3424 1.3445-1.7256 2.3935-3.9754 2.4541-6.61526-.8505-.63851-3.0827-1.98264-6.4972-1.98264-3.41504 0-5.64745 1.34457-6.49765 1.98295zm-.81932-.62826c.79063-.64808 3.31981-2.35469 7.31697-2.35469 3.9972 0 6.5263 1.70661 7.317 2.35469.1158.09497.183.23688.183.38669 0 3.01452-1.1784 5.55932-2.6681 7.47112-1.4833 1.9036-3.3018 3.214-4.6462 3.7517-.1448.058-.3084.045-.4422-.035-.0458-.0274-.0941-.0561-.145-.0864-1.8772-1.1164-7.0985-4.2216-7.0985-11.10142 0-.14981.06717-.29172.18303-.38669z"/><path d="m14.8536 9.14645c.1952.19526.1952.51184 0 .7071l-3 3.00005c-.1953.1952-.5119.1952-.7072 0l-1.49995-1.5c-.19527-.1953-.19527-.5119 0-.7072.19526-.1952.51185-.1952.70715 0l1.1464 1.1465 2.6464-2.64645c.1953-.19527.5119-.19527.7072 0z"/></g></svg>